<svg xmlns="http://www.w3.org/2000/svg" xmlns:xlink="http://www.w3.org/1999/xlink" width="500" zoomAndPan="magnify" viewBox="0 0 375 374.999991" height="500" preserveAspectRatio="xMidYMid meet" version="1.0"><defs><g/></defs><g fill="#ffffff" fill-opacity="1"><g transform="translate(31.977971, 265.595027)"><g><path d="M 109.753906 -156.410156 L 89.445312 -128.125 L 43.515625 -192.671875 C 43.03125 -193.15625 41.824219 -193.398438 41.097656 -193.398438 L 2.902344 -193.398438 C 0.242188 -193.398438 -0.726562 -191.464844 0.484375 -189.773438 C 23.933594 -156.894531 47.867188 -124.015625 71.074219 -90.898438 L 71.074219 -2.175781 C 71.074219 -1.207031 72.039062 0 73.734375 0 L 105.402344 0 C 106.851562 0 108.0625 -1.207031 108.0625 -2.175781 L 108.0625 -90.898438 L 154.71875 -156.410156 Z M 109.753906 -156.410156 "/></g></g></g><g fill="#ffffff" fill-opacity="1"><g transform="translate(186.501738, 350.667904)"><g><path d="M 88.722656 -107.335938 C 74.941406 -113.863281 61.402344 -113.863281 60.195312 -113.863281 C 47.867188 -113.863281 36.019531 -121.117188 36.019531 -135.136719 C 36.019531 -150.609375 46.898438 -158.585938 60.195312 -158.585938 C 72.765625 -158.585938 83.402344 -152.058594 83.886719 -138.28125 C 83.886719 -137.554688 85.09375 -136.347656 86.546875 -136.347656 L 116.765625 -136.347656 C 118.457031 -136.347656 119.664062 -137.554688 119.421875 -138.28125 C 118.941406 -171.15625 93.316406 -193.398438 60.195312 -193.398438 C 29.25 -193.398438 0 -171.398438 0 -135.136719 C 0 -112.65625 11.363281 -95.492188 31.425781 -86.304688 C 45.449219 -79.777344 58.503906 -79.777344 60.195312 -79.777344 C 71.074219 -79.292969 84.371094 -70.589844 84.371094 -56.328125 C 84.371094 -43.515625 73.007812 -34.8125 60.195312 -34.8125 C 60.195312 -34.8125 60.195312 -34.8125 59.953125 -34.8125 L 59.953125 0 C 60.195312 0 60.195312 0 60.195312 0 C 91.140625 0 120.148438 -20.066406 120.148438 -56.328125 C 120.148438 -79.050781 109.027344 -97.90625 88.722656 -107.335938 Z M 88.722656 -107.335938 "/></g></g></g><g fill="#ffffff" fill-opacity="1"><g transform="translate(53.120646, 317.697582)"><g><path d="M 11.90625 -17.078125 L 16.265625 -17.078125 L 10.296875 -6.203125 L 10.296875 0 L 6.078125 0 L 6.078125 -6.203125 L -0.046875 -17.078125 L 4.765625 -17.078125 L 8.203125 -9.9375 Z M 11.90625 -17.078125 "/></g></g></g><g fill="#ffffff" fill-opacity="1"><g transform="translate(84.216236, 317.697582)"><g><path d="M 4.359375 0 L -0.078125 0 L 6.234375 -17.078125 L 10.625 -17.078125 L 16.78125 0 L 12.359375 0 L 11.46875 -2.859375 L 5.25 -2.859375 Z M 8.328125 -12.875 C 8.179688 -12.375 8.019531 -11.835938 7.84375 -11.265625 C 7.675781 -10.691406 7.394531 -9.757812 7 -8.46875 L 6.296875 -6.203125 L 10.40625 -6.203125 L 9.703125 -8.46875 C 9.460938 -9.15625 9.222656 -9.882812 8.984375 -10.65625 C 8.753906 -11.425781 8.535156 -12.164062 8.328125 -12.875 Z M 8.328125 -12.875 "/></g></g></g><g fill="#ffffff" fill-opacity="1"><g transform="translate(115.801897, 317.697582)"><g><path d="M 7.78125 -6.375 L 4.328125 -7.1875 C 2.953125 -7.519531 2.015625 -8.019531 1.515625 -8.6875 C 1.015625 -9.363281 0.765625 -10.328125 0.765625 -11.578125 C 0.765625 -13.554688 1.285156 -15.007812 2.328125 -15.9375 C 3.367188 -16.875 4.988281 -17.34375 7.1875 -17.34375 C 8.09375 -17.34375 8.898438 -17.304688 9.609375 -17.234375 C 10.316406 -17.160156 10.972656 -17.035156 11.578125 -16.859375 L 11.578125 -13.078125 C 10.191406 -13.304688 9.238281 -13.4375 8.71875 -13.46875 C 8.207031 -13.507812 7.671875 -13.53125 7.109375 -13.53125 C 6.347656 -13.53125 5.789062 -13.398438 5.4375 -13.140625 C 5.09375 -12.890625 4.921875 -12.46875 4.921875 -11.875 C 4.921875 -11.582031 4.972656 -11.359375 5.078125 -11.203125 C 5.191406 -11.046875 5.40625 -10.929688 5.71875 -10.859375 L 8.984375 -10.109375 C 9.929688 -9.890625 10.613281 -9.675781 11.03125 -9.46875 C 11.445312 -9.257812 11.78125 -8.988281 12.03125 -8.65625 C 12.320312 -8.3125 12.535156 -7.867188 12.671875 -7.328125 C 12.804688 -6.785156 12.875 -6.125 12.875 -5.34375 C 12.875 -3.363281 12.347656 -1.929688 11.296875 -1.046875 C 10.242188 -0.171875 8.613281 0.265625 6.40625 0.265625 C 5.28125 0.265625 4.207031 0.195312 3.1875 0.0625 C 2.164062 -0.0703125 1.375 -0.238281 0.8125 -0.4375 L 0.8125 -4.4375 C 1.539062 -4.195312 2.40625 -4.007812 3.40625 -3.875 C 4.40625 -3.738281 5.40625 -3.671875 6.40625 -3.671875 C 7.195312 -3.671875 7.75 -3.769531 8.0625 -3.96875 C 8.375 -4.175781 8.53125 -4.578125 8.53125 -5.171875 C 8.53125 -5.554688 8.476562 -5.832031 8.375 -6 C 8.269531 -6.175781 8.070312 -6.300781 7.78125 -6.375 Z M 7.78125 -6.375 "/></g></g></g><g fill="#ffffff" fill-opacity="1"><g transform="translate(143.957076, 317.697582)"><g><path d="M 5.53125 0 L 1.3125 0 L 1.3125 -17.078125 L 5.53125 -17.078125 L 5.53125 -10.5625 L 11.515625 -10.5625 L 11.515625 -17.078125 L 15.734375 -17.078125 L 15.734375 0 L 11.515625 0 L 11.515625 -6.75 L 5.53125 -6.75 Z M 5.53125 0 "/></g></g></g><g fill="#ffffff" fill-opacity="1"><g transform="translate(228.857294, 137.474607)"><g><path d="M 7.78125 -6.375 L 4.328125 -7.1875 C 2.953125 -7.519531 2.015625 -8.019531 1.515625 -8.6875 C 1.015625 -9.363281 0.765625 -10.328125 0.765625 -11.578125 C 0.765625 -13.554688 1.285156 -15.007812 2.328125 -15.9375 C 3.367188 -16.875 4.988281 -17.34375 7.1875 -17.34375 C 8.09375 -17.34375 8.898438 -17.304688 9.609375 -17.234375 C 10.316406 -17.160156 10.972656 -17.035156 11.578125 -16.859375 L 11.578125 -13.078125 C 10.191406 -13.304688 9.238281 -13.4375 8.71875 -13.46875 C 8.207031 -13.507812 7.671875 -13.53125 7.109375 -13.53125 C 6.347656 -13.53125 5.789062 -13.398438 5.4375 -13.140625 C 5.09375 -12.890625 4.921875 -12.46875 4.921875 -11.875 C 4.921875 -11.582031 4.972656 -11.359375 5.078125 -11.203125 C 5.191406 -11.046875 5.40625 -10.929688 5.71875 -10.859375 L 8.984375 -10.109375 C 9.929688 -9.890625 10.613281 -9.675781 11.03125 -9.46875 C 11.445312 -9.257812 11.78125 -8.988281 12.03125 -8.65625 C 12.320312 -8.3125 12.535156 -7.867188 12.671875 -7.328125 C 12.804688 -6.785156 12.875 -6.125 12.875 -5.34375 C 12.875 -3.363281 12.347656 -1.929688 11.296875 -1.046875 C 10.242188 -0.171875 8.613281 0.265625 6.40625 0.265625 C 5.28125 0.265625 4.207031 0.195312 3.1875 0.0625 C 2.164062 -0.0703125 1.375 -0.238281 0.8125 -0.4375 L 0.8125 -4.4375 C 1.539062 -4.195312 2.40625 -4.007812 3.40625 -3.875 C 4.40625 -3.738281 5.40625 -3.671875 6.40625 -3.671875 C 7.195312 -3.671875 7.75 -3.769531 8.0625 -3.96875 C 8.375 -4.175781 8.53125 -4.578125 8.53125 -5.171875 C 8.53125 -5.554688 8.476562 -5.832031 8.375 -6 C 8.269531 -6.175781 8.070312 -6.300781 7.78125 -6.375 Z M 7.78125 -6.375 "/></g></g></g><g fill="#ffffff" fill-opacity="1"><g transform="translate(243.559638, 137.474607)"><g/></g></g><g fill="#ffffff" fill-opacity="1"><g transform="translate(248.977931, 137.474607)"><g><path d="M 13.078125 -3.953125 L 13.078125 0 L 1.3125 0 L 1.3125 -17.078125 L 12.828125 -17.078125 L 12.828125 -13.265625 L 5.53125 -13.265625 L 5.53125 -10.4375 L 11.8125 -10.4375 L 11.8125 -6.890625 L 5.53125 -6.890625 L 5.53125 -3.953125 Z M 13.078125 -3.953125 "/></g></g></g><g fill="#ffffff" fill-opacity="1"><g transform="translate(264.115906, 137.474607)"><g/></g></g><g fill="#ffffff" fill-opacity="1"><g transform="translate(269.534197, 137.474607)"><g><path d="M 5.90625 -6.640625 L 5.90625 -17.078125 L 10.125 -17.078125 L 10.125 -6.375 C 10.125 -4 9.609375 -2.296875 8.578125 -1.265625 C 7.546875 -0.242188 5.820312 0.265625 3.40625 0.265625 C 2.789062 0.265625 2.234375 0.242188 1.734375 0.203125 C 1.234375 0.160156 0.765625 0.0820312 0.328125 -0.03125 L 0.328125 -3.875 C 0.691406 -3.800781 1.082031 -3.75 1.5 -3.71875 C 1.914062 -3.6875 2.390625 -3.671875 2.921875 -3.671875 C 4.171875 -3.671875 4.976562 -3.863281 5.34375 -4.25 C 5.71875 -4.632812 5.90625 -5.429688 5.90625 -6.640625 Z M 5.90625 -6.640625 "/></g></g></g><g fill="#ffffff" fill-opacity="1"><g transform="translate(282.249062, 137.474607)"><g/></g></g><g fill="#ffffff" fill-opacity="1"><g transform="translate(287.667353, 137.474607)"><g><path d="M 4.5 0 L 0 -17.078125 L 4.578125 -17.078125 L 6.375 -8.640625 C 6.445312 -8.347656 6.523438 -7.957031 6.609375 -7.46875 C 6.691406 -6.976562 6.832031 -6.03125 7.03125 -4.625 C 7.082031 -4.96875 7.1875 -5.628906 7.34375 -6.609375 C 7.5 -7.597656 7.613281 -8.265625 7.6875 -8.609375 L 9.421875 -17.078125 L 13.828125 -17.078125 L 15.625 -8.640625 C 15.695312 -8.347656 15.773438 -7.957031 15.859375 -7.46875 C 15.941406 -6.976562 16.082031 -6.03125 16.28125 -4.625 C 16.34375 -4.96875 16.445312 -5.628906 16.59375 -6.609375 C 16.75 -7.597656 16.863281 -8.265625 16.9375 -8.609375 L 18.6875 -17.078125 L 23.125 -17.078125 L 18.65625 0 L 13.78125 0 L 12.6875 -5.171875 C 12.507812 -6.046875 12.328125 -6.960938 12.140625 -7.921875 C 11.960938 -8.890625 11.773438 -9.953125 11.578125 -11.109375 C 11.285156 -9.492188 11.054688 -8.273438 10.890625 -7.453125 C 10.734375 -6.640625 10.582031 -5.878906 10.4375 -5.171875 L 9.34375 0 Z M 4.5 0 "/></g></g></g><g fill="#ffffff" fill-opacity="1"><g transform="translate(312.171046, 137.474607)"><g/></g></g><g fill="#ffffff" fill-opacity="1"><g transform="translate(317.589337, 137.474607)"><g><path d="M 4.359375 0 L -0.078125 0 L 6.234375 -17.078125 L 10.625 -17.078125 L 16.78125 0 L 12.359375 0 L 11.46875 -2.859375 L 5.25 -2.859375 Z M 8.328125 -12.875 C 8.179688 -12.375 8.019531 -11.835938 7.84375 -11.265625 C 7.675781 -10.691406 7.394531 -9.757812 7 -8.46875 L 6.296875 -6.203125 L 10.40625 -6.203125 L 9.703125 -8.46875 C 9.460938 -9.15625 9.222656 -9.882812 8.984375 -10.65625 C 8.753906 -11.425781 8.535156 -12.164062 8.328125 -12.875 Z M 8.328125 -12.875 "/></g></g></g><g fill="#ffffff" fill-opacity="1"><g transform="translate(335.722162, 137.474607)"><g/></g></g><g fill="#ffffff" fill-opacity="1"><g transform="translate(341.140453, 137.474607)"><g><path d="M 12.203125 -3.953125 L 12.203125 0 L 1.3125 0 L 1.3125 -17.078125 L 5.53125 -17.078125 L 5.53125 -3.953125 Z M 12.203125 -3.953125 "/></g></g></g></svg>