<svg xmlns="http://www.w3.org/2000/svg" xmlns:xlink="http://www.w3.org/1999/xlink" width="500" zoomAndPan="magnify" viewBox="0 0 375 374.999991" height="500" preserveAspectRatio="xMidYMid meet" version="1.0"><defs><g/></defs><g fill="#ffffff" fill-opacity="1"><g transform="translate(31.099561, 241.017694)"><g><path d="M 119.386719 -170.136719 L 97.296875 -139.371094 L 47.332031 -209.582031 C 46.808594 -210.109375 45.492188 -210.371094 44.703125 -210.371094 L 3.15625 -210.371094 C 0.261719 -210.371094 -0.789062 -208.269531 0.527344 -206.425781 C 26.035156 -170.664062 52.066406 -134.902344 77.3125 -98.875 L 77.3125 -2.367188 C 77.3125 -1.316406 78.363281 0 80.203125 0 L 114.652344 0 C 116.230469 0 117.546875 -1.316406 117.546875 -2.367188 L 117.546875 -98.875 L 168.296875 -170.136719 Z M 119.386719 -170.136719 "/></g></g></g><g fill="#ffffff" fill-opacity="1"><g transform="translate(199.185134, 333.557019)"><g><path d="M 96.507812 -116.757812 C 81.519531 -123.855469 66.792969 -123.855469 65.476562 -123.855469 C 52.066406 -123.855469 39.183594 -131.746094 39.183594 -146.996094 C 39.183594 -163.828125 51.015625 -172.503906 65.476562 -172.503906 C 79.152344 -172.503906 90.722656 -165.40625 91.25 -150.417969 C 91.25 -149.628906 92.5625 -148.3125 94.140625 -148.3125 L 127.011719 -148.3125 C 128.851562 -148.3125 130.167969 -149.628906 129.90625 -150.417969 C 129.378906 -186.179688 101.503906 -210.371094 65.476562 -210.371094 C 31.820312 -210.371094 0 -186.441406 0 -146.996094 C 0 -122.542969 12.359375 -103.871094 34.183594 -93.878906 C 49.4375 -86.777344 63.636719 -86.777344 65.476562 -86.777344 C 77.3125 -86.253906 91.773438 -76.785156 91.773438 -61.269531 C 91.773438 -47.332031 79.414062 -37.867188 65.476562 -37.867188 C 65.476562 -37.867188 65.476562 -37.867188 65.214844 -37.867188 L 65.214844 0 C 65.476562 0 65.476562 0 65.476562 0 C 99.136719 0 130.695312 -21.824219 130.695312 -61.269531 C 130.695312 -85.988281 118.597656 -106.5 96.507812 -116.757812 Z M 96.507812 -116.757812 "/></g></g></g><g fill="#ffffff" fill-opacity="1"><g transform="translate(54.097827, 297.69304)"><g><path d="M 12.953125 -18.578125 L 17.6875 -18.578125 L 11.203125 -6.75 L 11.203125 0 L 6.609375 0 L 6.609375 -6.75 L -0.0625 -18.578125 L 5.1875 -18.578125 L 8.921875 -10.8125 Z M 12.953125 -18.578125 "/></g></g></g><g fill="#ffffff" fill-opacity="1"><g transform="translate(87.922528, 297.69304)"><g><path d="M 4.734375 0 L -0.09375 0 L 6.78125 -18.578125 L 11.546875 -18.578125 L 18.25 0 L 13.453125 0 L 12.46875 -3.109375 L 5.71875 -3.109375 Z M 9.0625 -14.015625 C 8.90625 -13.460938 8.734375 -12.875 8.546875 -12.25 C 8.359375 -11.625 8.046875 -10.613281 7.609375 -9.21875 L 6.84375 -6.75 L 11.3125 -6.75 L 10.546875 -9.21875 C 10.285156 -9.96875 10.023438 -10.757812 9.765625 -11.59375 C 9.515625 -12.4375 9.28125 -13.242188 9.0625 -14.015625 Z M 9.0625 -14.015625 "/></g></g></g><g fill="#ffffff" fill-opacity="1"><g transform="translate(122.280311, 297.69304)"><g><path d="M 8.46875 -6.9375 L 4.703125 -7.828125 C 3.203125 -8.179688 2.179688 -8.722656 1.640625 -9.453125 C 1.097656 -10.179688 0.828125 -11.226562 0.828125 -12.59375 C 0.828125 -14.738281 1.394531 -16.320312 2.53125 -17.34375 C 3.664062 -18.363281 5.429688 -18.875 7.828125 -18.875 C 8.804688 -18.875 9.679688 -18.832031 10.453125 -18.75 C 11.222656 -18.675781 11.9375 -18.539062 12.59375 -18.34375 L 12.59375 -14.21875 C 11.09375 -14.476562 10.0625 -14.625 9.5 -14.65625 C 8.9375 -14.695312 8.347656 -14.71875 7.734375 -14.71875 C 6.898438 -14.71875 6.296875 -14.578125 5.921875 -14.296875 C 5.546875 -14.023438 5.359375 -13.566406 5.359375 -12.921875 C 5.359375 -12.597656 5.414062 -12.351562 5.53125 -12.1875 C 5.65625 -12.019531 5.882812 -11.898438 6.21875 -11.828125 L 9.78125 -10.984375 C 10.800781 -10.753906 11.535156 -10.523438 11.984375 -10.296875 C 12.441406 -10.066406 12.8125 -9.773438 13.09375 -9.421875 C 13.40625 -9.046875 13.632812 -8.5625 13.78125 -7.96875 C 13.9375 -7.375 14.015625 -6.65625 14.015625 -5.8125 C 14.015625 -3.65625 13.441406 -2.097656 12.296875 -1.140625 C 11.148438 -0.179688 9.375 0.296875 6.96875 0.296875 C 5.738281 0.296875 4.570312 0.222656 3.46875 0.078125 C 2.363281 -0.0664062 1.503906 -0.25 0.890625 -0.46875 L 0.890625 -4.828125 C 1.679688 -4.566406 2.617188 -4.363281 3.703125 -4.21875 C 4.785156 -4.070312 5.875 -4 6.96875 -4 C 7.832031 -4 8.429688 -4.109375 8.765625 -4.328125 C 9.097656 -4.546875 9.265625 -4.976562 9.265625 -5.625 C 9.265625 -6.039062 9.210938 -6.34375 9.109375 -6.53125 C 9.003906 -6.71875 8.789062 -6.851562 8.46875 -6.9375 Z M 8.46875 -6.9375 "/></g></g></g><g fill="#ffffff" fill-opacity="1"><g transform="translate(152.906534, 297.69304)"><g><path d="M 6.015625 0 L 1.421875 0 L 1.421875 -18.578125 L 6.015625 -18.578125 L 6.015625 -11.5 L 12.53125 -11.5 L 12.53125 -18.578125 L 17.125 -18.578125 L 17.125 0 L 12.53125 0 L 12.53125 -7.34375 L 6.015625 -7.34375 Z M 6.015625 0 "/></g></g></g><g fill="#ffffff" fill-opacity="1"><g transform="translate(247.232417, 70.849456)"><g><path d="M 8.46875 -6.9375 L 4.703125 -7.828125 C 3.203125 -8.179688 2.179688 -8.722656 1.640625 -9.453125 C 1.097656 -10.179688 0.828125 -11.226562 0.828125 -12.59375 C 0.828125 -14.738281 1.394531 -16.320312 2.53125 -17.34375 C 3.664062 -18.363281 5.429688 -18.875 7.828125 -18.875 C 8.804688 -18.875 9.679688 -18.832031 10.453125 -18.75 C 11.222656 -18.675781 11.9375 -18.539062 12.59375 -18.34375 L 12.59375 -14.21875 C 11.09375 -14.476562 10.0625 -14.625 9.5 -14.65625 C 8.9375 -14.695312 8.347656 -14.71875 7.734375 -14.71875 C 6.898438 -14.71875 6.296875 -14.578125 5.921875 -14.296875 C 5.546875 -14.023438 5.359375 -13.566406 5.359375 -12.921875 C 5.359375 -12.597656 5.414062 -12.351562 5.53125 -12.1875 C 5.65625 -12.019531 5.882812 -11.898438 6.21875 -11.828125 L 9.78125 -10.984375 C 10.800781 -10.753906 11.535156 -10.523438 11.984375 -10.296875 C 12.441406 -10.066406 12.8125 -9.773438 13.09375 -9.421875 C 13.40625 -9.046875 13.632812 -8.5625 13.78125 -7.96875 C 13.9375 -7.375 14.015625 -6.65625 14.015625 -5.8125 C 14.015625 -3.65625 13.441406 -2.097656 12.296875 -1.140625 C 11.148438 -0.179688 9.375 0.296875 6.96875 0.296875 C 5.738281 0.296875 4.570312 0.222656 3.46875 0.078125 C 2.363281 -0.0664062 1.503906 -0.25 0.890625 -0.46875 L 0.890625 -4.828125 C 1.679688 -4.566406 2.617188 -4.363281 3.703125 -4.21875 C 4.785156 -4.070312 5.875 -4 6.96875 -4 C 7.832031 -4 8.429688 -4.109375 8.765625 -4.328125 C 9.097656 -4.546875 9.265625 -4.976562 9.265625 -5.625 C 9.265625 -6.039062 9.210938 -6.34375 9.109375 -6.53125 C 9.003906 -6.71875 8.789062 -6.851562 8.46875 -6.9375 Z M 8.46875 -6.9375 "/></g></g></g><g fill="#ffffff" fill-opacity="1"><g transform="translate(263.225116, 70.849456)"><g><path d="M 14.21875 -4.296875 L 14.21875 0 L 1.421875 0 L 1.421875 -18.578125 L 13.953125 -18.578125 L 13.953125 -14.421875 L 6.015625 -14.421875 L 6.015625 -11.34375 L 12.859375 -11.34375 L 12.859375 -7.5 L 6.015625 -7.5 L 6.015625 -4.296875 Z M 14.21875 -4.296875 "/></g></g></g><g fill="#ffffff" fill-opacity="1"><g transform="translate(279.691678, 70.849456)"><g><path d="M 6.421875 -7.234375 L 6.421875 -18.578125 L 11.015625 -18.578125 L 11.015625 -6.9375 C 11.015625 -4.34375 10.453125 -2.488281 9.328125 -1.375 C 8.203125 -0.257812 6.328125 0.296875 3.703125 0.296875 C 3.035156 0.296875 2.425781 0.269531 1.875 0.21875 C 1.332031 0.164062 0.828125 0.0820312 0.359375 -0.03125 L 0.359375 -4.203125 C 0.753906 -4.128906 1.175781 -4.078125 1.625 -4.046875 C 2.082031 -4.015625 2.597656 -4 3.171875 -4 C 4.535156 -4 5.414062 -4.207031 5.8125 -4.625 C 6.21875 -5.039062 6.421875 -5.910156 6.421875 -7.234375 Z M 6.421875 -7.234375 "/></g></g></g><g fill="#ffffff" fill-opacity="1"><g transform="translate(293.522468, 70.849456)"><g><path d="M 4.890625 0 L 0 -18.578125 L 4.984375 -18.578125 L 6.9375 -9.390625 C 7.007812 -9.078125 7.085938 -8.648438 7.171875 -8.109375 C 7.265625 -7.578125 7.421875 -6.550781 7.640625 -5.03125 C 7.703125 -5.40625 7.816406 -6.125 7.984375 -7.1875 C 8.148438 -8.257812 8.273438 -8.984375 8.359375 -9.359375 L 10.25 -18.578125 L 15.046875 -18.578125 L 17 -9.390625 C 17.082031 -9.078125 17.164062 -8.648438 17.25 -8.109375 C 17.34375 -7.578125 17.5 -6.550781 17.71875 -5.03125 C 17.769531 -5.40625 17.878906 -6.125 18.046875 -7.1875 C 18.222656 -8.257812 18.347656 -8.984375 18.421875 -9.359375 L 20.328125 -18.578125 L 25.15625 -18.578125 L 20.296875 0 L 14.984375 0 L 13.8125 -5.625 C 13.613281 -6.570312 13.414062 -7.566406 13.21875 -8.609375 C 13.019531 -9.660156 12.8125 -10.820312 12.59375 -12.09375 C 12.269531 -10.332031 12.019531 -9.003906 11.84375 -8.109375 C 11.664062 -7.222656 11.5 -6.394531 11.34375 -5.625 L 10.15625 0 Z M 4.890625 0 "/></g></g></g><g fill="#ffffff" fill-opacity="1"><g transform="translate(320.176737, 70.849456)"><g><path d="M 4.734375 0 L -0.09375 0 L 6.78125 -18.578125 L 11.546875 -18.578125 L 18.25 0 L 13.453125 0 L 12.46875 -3.109375 L 5.71875 -3.109375 Z M 9.0625 -14.015625 C 8.90625 -13.460938 8.734375 -12.875 8.546875 -12.25 C 8.359375 -11.625 8.046875 -10.613281 7.609375 -9.21875 L 6.84375 -6.75 L 11.3125 -6.75 L 10.546875 -9.21875 C 10.285156 -9.96875 10.023438 -10.757812 9.765625 -11.59375 C 9.515625 -12.4375 9.28125 -13.242188 9.0625 -14.015625 Z M 9.0625 -14.015625 "/></g></g></g><g fill="#ffffff" fill-opacity="1"><g transform="translate(339.900999, 70.849456)"><g><path d="M 13.265625 -4.296875 L 13.265625 0 L 1.421875 0 L 1.421875 -18.578125 L 6.015625 -18.578125 L 6.015625 -4.296875 Z M 13.265625 -4.296875 "/></g></g></g></svg>